<svg width="14" height="13" viewBox="0 0 14 13" fill="none" xmlns="http://www.w3.org/2000/svg">
<path d="M13.7812 4.94531C13.9271 5.07292 14 5.23698 14 5.4375C14 5.63802 13.9271 5.80208 13.7812 5.92969L8.96875 10.0859C8.75 10.2682 8.51302 10.3047 8.25781 10.1953C8.0026 10.0677 7.875 9.86719 7.875 9.59375V7.1875C6.98177 7.20573 6.22526 7.26953 5.60547 7.37891C4.98568 7.47005 4.44792 7.63411 3.99219 7.87109C3.53646 8.08984 3.19922 8.39062 2.98047 8.77344C2.77995 9.15625 2.67969 9.63932 2.67969 10.2227C2.67969 10.806 2.79818 11.4896 3.03516 12.2734C3.10807 12.4922 3.04427 12.6654 2.84375 12.793C2.66146 12.9206 2.47005 12.9115 2.26953 12.7656C1.63151 12.3099 1.09375 11.6992 0.65625 10.9336C0.21875 10.1497 0 9.35677 0 8.55469C0 7.7526 0.136719 7.05078 0.410156 6.44922C0.683594 5.84766 1.04818 5.36458 1.50391 5C1.95964 4.61719 2.53385 4.31641 3.22656 4.09766C3.91927 3.86068 4.63021 3.70573 5.35938 3.63281C6.08854 3.54167 6.92708 3.48698 7.875 3.46875V1.28125C7.875 1.00781 8.0026 0.816406 8.25781 0.707031C8.51302 0.579427 8.75 0.606771 8.96875 0.789062L13.7812 4.94531Z" fill="#939191"/>
</svg>
