<svg width="15" height="13" viewBox="0 0 15 13" fill="none" xmlns="http://www.w3.org/2000/svg">
<path d="M12.6602 1.47266C13.5169 2.20182 13.9727 3.13151 14.0273 4.26172C14.082 5.39193 13.7174 6.34896 12.9336 7.13281L7.65625 12.6016C7.47396 12.7839 7.26432 12.875 7.02734 12.875C6.79036 12.875 6.58073 12.7839 6.39844 12.6016L1.12109 7.13281C0.33724 6.34896 -0.0273438 5.39193 0.0273438 4.26172C0.0820312 3.13151 0.53776 2.20182 1.39453 1.47266C2.14193 0.834635 2.9987 0.561198 3.96484 0.652344C4.94922 0.72526 5.78776 1.11719 6.48047 1.82812L7.02734 2.375L7.57422 1.82812C8.26693 1.11719 9.09635 0.72526 10.0625 0.652344C11.0469 0.561198 11.9128 0.834635 12.6602 1.47266Z" fill="#939191"/>
</svg>
