<svg width="39" height="61" viewBox="0 0 39 61" fill="none" xmlns="http://www.w3.org/2000/svg">
<path d="M1.4375 33.5293L26.6719 58.7637C27.5378 59.6296 28.5892 60.0625 29.8262 60.0625C31.0632 60.0625 32.1146 59.6296 32.9805 58.7637L37.0625 54.4961C37.9284 53.6302 38.3613 52.5788 38.3613 51.3418C38.3613 50.1048 37.9284 49.0534 37.0625 48.1875L19.25 30.375L37.0625 12.5625C37.9284 11.6966 38.3613 10.6452 38.3613 9.4082C38.3613 8.17122 37.9284 7.11979 37.0625 6.25391L32.9805 1.98633C32.1146 1.12044 31.0632 0.6875 29.8262 0.6875C28.5892 0.6875 27.5378 1.12044 26.6719 1.98633L1.4375 27.2207C0.571615 28.0866 0.138672 29.138 0.138672 30.375C0.138672 31.612 0.571615 32.6634 1.4375 33.5293Z" fill="#E0E0E0"/>
</svg>
