<svg width="10" height="7" viewBox="0 0 10 7" fill="none" xmlns="http://www.w3.org/2000/svg">
<path d="M4.21875 6.1875L0.234375 2.20312C0.0976563 2.06641 0.0292969 1.90039 0.0292969 1.70508C0.0292969 1.50977 0.0976563 1.34375 0.234375 1.20703L0.908203 0.5625C1.04492 0.425781 1.21094 0.357422 1.40625 0.357422C1.60156 0.357422 1.76758 0.425781 1.9043 0.5625L4.7168 3.375L7.5293 0.5625C7.66602 0.425781 7.83203 0.357422 8.02734 0.357422C8.22266 0.357422 8.38867 0.425781 8.52539 0.5625L9.19922 1.20703C9.33594 1.34375 9.4043 1.50977 9.4043 1.70508C9.4043 1.90039 9.33594 2.06641 9.19922 2.20312L5.21484 6.1875C5.07812 6.32422 4.91211 6.39258 4.7168 6.39258C4.52148 6.39258 4.35547 6.32422 4.21875 6.1875Z" fill="#333333"/>
</svg>
