<svg width="39" height="61" viewBox="0 0 39 61" fill="none" xmlns="http://www.w3.org/2000/svg">
<path d="M37.5625 33.5293L12.3281 58.7637C11.4622 59.6296 10.4108 60.0625 9.17383 60.0625C7.93685 60.0625 6.88542 59.6296 6.01953 58.7637L1.9375 54.4961C1.07161 53.6302 0.638672 52.5788 0.638672 51.3418C0.638672 50.1048 1.07161 49.0534 1.9375 48.1875L19.75 30.375L1.9375 12.5625C1.07161 11.6966 0.638672 10.6452 0.638672 9.4082C0.638672 8.17122 1.07161 7.11979 1.9375 6.25391L6.01953 1.98633C6.88542 1.12044 7.93685 0.6875 9.17383 0.6875C10.4108 0.6875 11.4622 1.12044 12.3281 1.98633L37.5625 27.2207C38.4284 28.0866 38.8613 29.138 38.8613 30.375C38.8613 31.612 38.4284 32.6634 37.5625 33.5293Z" fill="#E0E0E0"/>
</svg>
